<svg height="512" viewBox="0 0 512 512" width="512" xmlns="http://www.w3.org/2000/svg"><g id="filled_outline" data-name="filled outline"><path d="m376 488-96-48h-48l-96 48h72l48-24 48 24z" fill="#645960"/><path d="m240 384h32v64h-32z" fill="#645960"/><path d="m240 424h32v48h-32z" fill="#f55441"/><path d="m24 152v256l24.8-3.1q3.6-.45 7.2-.884l200-36.016 200 36.016q3.6.433 7.2.884l24.8 3.1v-256l-24.8 3.1a1670.376 1670.376 0 0 1 -207.2 12.9 1670.376 1670.376 0 0 1 -207.2-12.9z" fill="#315a70"/><path d="m56 72v332.016a1670.5 1670.5 0 0 1 200-12.016 1670.5 1670.5 0 0 1 200 12.016v-332.016z" fill="#e6e6e6"/><path d="m56 56h400v24h-400z" fill="#ccc"/><path d="m368 112h-208a64 64 0 0 0 -64 64v80a64 64 0 0 0 64 64v48l48-48h160a64 64 0 0 0 64-64v-80a64 64 0 0 0 -64-64z" fill="#ccc"/><path d="m56 72v-32a16 16 0 0 1 16-16h368a16 16 0 0 1 16 16v32z" fill="#645960"/><path d="m152 104h208a64 64 0 0 1 64 64v80a64 64 0 0 1 -64 64h-160l-48 48v-48a64 64 0 0 1 -64-64v-80a64 64 0 0 1 64-64z" fill="#6ad3d3"/><path d="m360 104h-32l-112 112-16 48 48-16 138.33-138.33a63.739 63.739 0 0 0 -26.33-5.67z" fill="#5d9b9c"/><path d="m208 208-16 48 48-16 144-144-32-32z" fill="#f55441"/><path d="m384 96 17.373-17.373a22.627 22.627 0 0 0 6.627-16 22.628 22.628 0 0 0 -22.627-22.627 22.627 22.627 0 0 0 -16 6.627l-17.373 17.373z" fill="#ffaf00"/><path d="m240 208v-16h-16l-16 16-16 48 48-16 16-16v-16z" fill="#ecc19c"/><path d="m493.294 146a8 8 0 0 0 -6.286-1.94l-23.008 2.878v-106.938a24.027 24.027 0 0 0 -24-24h-368a24.027 24.027 0 0 0 -24 24v106.938l-23.008-2.876a8 8 0 0 0 -8.992 7.938v256a8 8 0 0 0 8.992 7.938l24.8-3.1a1669.894 1669.894 0 0 1 182.208-12.657v31.819a7.994 7.994 0 0 0 -3.578.845l-96 48a8 8 0 0 0 3.578 15.155h72a7.994 7.994 0 0 0 3.578-.845l30.311-15.155h28.222l30.311 15.155a7.994 7.994 0 0 0 3.578.845h72a8 8 0 0 0 3.578-15.155l-96-48a7.994 7.994 0 0 0 -3.578-.845v-31.819a1669.894 1669.894 0 0 1 182.205 12.656l24.8 3.1a8 8 0 0 0 8.995-7.937v-256a8 8 0 0 0 -2.706-6zm-109.294-61.314-20.686-20.686 11.716-11.716a14.628 14.628 0 0 1 20.686 20.687zm-232 219.314a56.063 56.063 0 0 1 -56-56v-80a56.063 56.063 0 0 1 56-56h140.686l-40 40h-116.686v16h100.686l-32 32h-68.686v16h60.9l-10.666 32h-50.234v16h56a7.971 7.971 0 0 0 2.529-.411l48-16a8 8 0 0 0 3.127-1.932l29.658-29.657h100.686v-16h-84.686l32-32h52.686v-16h-36.686l37.444-37.444a55.964 55.964 0 0 1 39.242 53.444v80a56.063 56.063 0 0 1 -56 56h-160a8 8 0 0 0 -5.657 2.343l-34.343 34.343v-28.686a8 8 0 0 0 -8-8zm80-104v8a8 8 0 0 0 8 8h8v4.687l-12.321 12.321-31.03 10.343 10.343-31.03 12.321-12.321zm140.686-104-109.2 109.2a8 8 0 0 0 -7.486-5.2h-8v-8a8 8 0 0 0 -5.2-7.486l109.2-109.2zm-64 0h-156.686a72.081 72.081 0 0 0 -72 72v80a72.107 72.107 0 0 0 64 71.559v40.441a8 8 0 0 0 13.657 5.657l45.656-45.657h156.687a72.081 72.081 0 0 0 72-72v-80a71.983 71.983 0 0 0 -42.835-65.851l17.865-17.865a30.9 30.9 0 0 0 3.57-4.284h37.4v315.028a1676.9 1676.9 0 0 0 -384 0v-315.028h260.686zm-236.686-64h368a8.009 8.009 0 0 1 8 8v24h-32.033c.02-.456.033-.913.033-1.373a30.627 30.627 0 0 0 -52.284-21.656l-23.03 23.029h-276.686v-24a8.009 8.009 0 0 1 8-8zm-40 366.938v-237.876l15.811 1.977.189.023v233.876l-.189.023zm174.111 81.062h-36.222l62.111-31.056v18.112zm41.889-16v-32h16v32zm94.111 16h-36.222l-25.889-12.944v-18.112zm-78.111-64h-16v-15.969c2.667-.013 5.335-.031 8-.031s5.333.018 8 .031zm216-17.062-15.811-1.977-.189-.023v-233.876l.189-.023 15.811-1.977z"/><circle cx="80" cy="48" r="8"/></g></svg>