<svg id="Layer_1" data-name="Layer 1" xmlns="http://www.w3.org/2000/svg" viewBox="0 0 512 512"><defs><style>.cls-1{fill:#26a3f7;}.cls-2{fill:#dde5e8;}.cls-3{fill:#1d85b2;}.cls-4{fill:#f47878;}.cls-5{fill:#afc3c9;}</style></defs><title>browser-10-flat</title><path class="cls-1" d="M0,115.2V64A64,64,0,0,1,64,0H448a64,64,0,0,1,64,64v51.2Z"/><path class="cls-2" d="M512,115.2V448a64,64,0,0,1-64,64H64A64,64,0,0,1,0,448V115.2Z"/><circle class="cls-3" cx="70.4" cy="57.6" r="19.2"/><circle class="cls-3" cx="121.6" cy="57.6" r="19.2"/><circle class="cls-3" cx="172.8" cy="57.6" r="19.2"/><rect class="cls-4" x="64" y="179.2" width="102.4" height="102.4" rx="32" ry="32"/><path class="cls-5" d="M166.4,332.8a12.8,12.8,0,0,1-12.8,12.8H76.8A12.8,12.8,0,0,1,64,332.8h0A12.8,12.8,0,0,1,76.8,320h76.8a12.8,12.8,0,0,1,12.8,12.8Z"/><path class="cls-5" d="M166.4,384a12.8,12.8,0,0,1-12.8,12.8H76.8A12.8,12.8,0,0,1,64,384h0a12.8,12.8,0,0,1,12.8-12.8h76.8A12.8,12.8,0,0,1,166.4,384Z"/><rect class="cls-4" x="204.8" y="179.2" width="102.4" height="102.4" rx="32" ry="32"/><rect class="cls-4" x="345.6" y="179.2" width="102.4" height="102.4" rx="32" ry="32"/><path class="cls-5" d="M128,435.2A12.8,12.8,0,0,1,115.2,448H76.8A12.8,12.8,0,0,1,64,435.2h0a12.8,12.8,0,0,1,12.8-12.8h38.4A12.8,12.8,0,0,1,128,435.2Z"/><path class="cls-5" d="M307.2,332.8a12.8,12.8,0,0,1-12.8,12.8H217.6a12.8,12.8,0,0,1-12.8-12.8h0A12.8,12.8,0,0,1,217.6,320h76.8a12.8,12.8,0,0,1,12.8,12.8Z"/><path class="cls-5" d="M307.2,384a12.8,12.8,0,0,1-12.8,12.8H217.6A12.8,12.8,0,0,1,204.8,384h0a12.8,12.8,0,0,1,12.8-12.8h76.8A12.8,12.8,0,0,1,307.2,384Z"/><path class="cls-5" d="M268.8,435.2A12.8,12.8,0,0,1,256,448H217.6a12.8,12.8,0,0,1-12.8-12.8h0a12.8,12.8,0,0,1,12.8-12.8H256a12.8,12.8,0,0,1,12.8,12.8Z"/><path class="cls-5" d="M448,332.8a12.8,12.8,0,0,1-12.8,12.8H358.4a12.8,12.8,0,0,1-12.8-12.8h0A12.8,12.8,0,0,1,358.4,320h76.8A12.8,12.8,0,0,1,448,332.8Z"/><path class="cls-5" d="M448,384a12.8,12.8,0,0,1-12.8,12.8H358.4A12.8,12.8,0,0,1,345.6,384h0a12.8,12.8,0,0,1,12.8-12.8h76.8A12.8,12.8,0,0,1,448,384Z"/><path class="cls-5" d="M409.6,435.2A12.8,12.8,0,0,1,396.8,448H358.4a12.8,12.8,0,0,1-12.8-12.8h0a12.8,12.8,0,0,1,12.8-12.8h38.4a12.8,12.8,0,0,1,12.8,12.8Z"/></svg>