<svg id="Layer_5" enable-background="new 0 0 64 64" height="512" viewBox="0 0 64 64" width="512" xmlns="http://www.w3.org/2000/svg"><g><g><g><path d="m54 51v6c0 .55-.45 1-1 1h-18c-.55 0-1-.45-1-1v-3-3c0-.55.45-1 1-1h18c.55 0 1 .45 1 1z" fill="#fcd770"/></g><g><path d="m62 37v6c0 .55-.45 1-1 1h-18c-.55 0-1-.45-1-1v-3-3c0-.55.45-1 1-1h18c.55 0 1 .45 1 1z" fill="#fcd770"/></g><g><path d="m22 55v6c0 .55-.45 1-1 1h-18c-.55 0-1-.45-1-1v-6c0-.55.45-1 1-1h9 9c.55 0 1 .45 1 1z" fill="#fcd770"/></g><g><path d="m32 17c0 8.28-6.72 15-15 15s-15-6.72-15-15 6.72-15 15-15 15 6.72 15 15z" fill="#ccd1d9"/></g><g><path d="m28 17c0 6.08-4.92 11-11 11s-11-4.92-11-11 4.92-11 11-11 11 4.92 11 11z" fill="#e6e9ed"/></g><g><circle cx="17" cy="17" fill="#ff826e" r="5"/></g><g><path d="m47 17 3-6h11l-3 6 3 6h-11z" fill="#b4dd7f"/></g></g><g><path d="m17 57h2v2h-2z"/><path d="m9 57h2v2h-2z"/><path d="m5 57h2v2h-2z"/><path d="m13 57h2v2h-2z"/><path d="m45 53h2v2h-2z"/><path d="m49 53h2v2h-2z"/><path d="m41 53h2v2h-2z"/><path d="m37 53h2v2h-2z"/><path d="m61 35h-18c-1.103 0-2 .897-2 2v2h-22c-.551 0-1-.449-1-1v-5.051c8.023-.5 14.45-6.926 14.949-14.949h13.432l3 6h13.236l-3.5-7 3.5-7h-13.235l-3 6h-13.433c-.52-8.356-7.464-15-15.949-15-8.822 0-16 7.178-16 16 0 8.485 6.644 15.429 15 15.949v5.051c0 1.654 1.346 3 3 3h8v6h-13c-1.654 0-3 1.346-3 3v3h-8c-1.103 0-2 .897-2 2v6c0 1.103.897 2 2 2h18c1.103 0 2-.897 2-2v-6c0-1.103-.897-2-2-2h-8v-3c0-.551.449-1 1-1h13v3c0 1.654 1.346 3 3 3h3v2c0 1.103.897 2 2 2h18c1.103 0 2-.897 2-2v-6c0-1.103-.897-2-2-2h-18c-1.103 0-2 .897-2 2v2h-3c-.551 0-1-.449-1-1v-11h12v2c0 1.103.897 2 2 2h18c1.103 0 2-.897 2-2v-6c0-1.103-.897-2-2-2zm-10.382-23h8.764l-2.5 5 2.5 5h-8.764l-2-4h5.382v-2h-5.382zm-47.618 5c0-7.72 6.28-14 14-14 7.382 0 13.433 5.747 13.949 13h-2c-.511-6.149-5.67-11-11.949-11-6.617 0-12 5.383-12 12s5.383 12 12 12c6.279 0 11.438-4.851 11.949-11h2c-.516 7.253-6.567 13-13.949 13-7.72 0-14-6.28-14-14zm19.91-1c-.478-2.833-2.942-5-5.91-5-3.309 0-6 2.691-6 6s2.691 6 6 6c2.967 0 5.431-2.167 5.91-5h4.04c-.503 5.046-4.773 9-9.949 9-5.514 0-10-4.486-10-10s4.485-10 9.999-10c5.177 0 9.446 3.954 9.949 9zm-2.052 2c-.447 1.72-2 3-3.858 3-2.206 0-4-1.794-4-4s1.794-4 4-4c1.858 0 3.411 1.28 3.858 3h-3.858v2zm.143 43h-18.001v-6h18zm13.999-10h18l.001 6h-18.001zm8-8v-6h18l.001 6z"/><path d="m57 39h2v2h-2z"/><path d="m53 39h2v2h-2z"/><path d="m45 39h2v2h-2z"/><path d="m49 39h2v2h-2z"/></g></g></svg>